<svg xmlns="http://www.w3.org/2000/svg" width="269.55" height="59.749" viewBox="0 0 269.55 59.749"><defs><style>.a{fill:#ffbb00;}</style></defs><path class="a" d="M620.651,131.961q-6.177-9.252-12.323-18.524a11.887,11.887,0,0,0-9.3-5.5c-4.746-.4-203.462-.048-207.253-.152-5.058,0-9.149-.019-13.244,0-5,.029-8.944,1.933-11.726,6.277-3.945,6.158-8.1,12.18-12.109,18.3a8.969,8.969,0,0,0,0,10.518c4.037,6.162,8.21,12.232,12.2,18.423a12.779,12.779,0,0,0,11.334,6.134c8.39.067,210.733.067,219.124,0,4.559-.036,8.367-1.71,10.977-5.642q6.15-9.273,12.32-18.527A9.388,9.388,0,0,0,620.651,131.961Z" transform="translate(-352.994 -107.739)"/></svg>