<svg xmlns="http://www.w3.org/2000/svg" width="395.25" height="86.441" fill="#ffffff" viewBox="0 0 395.25 86.441"><g transform="translate(-119.353 -49)"><g transform="translate(119.353 49)"><path d="M225.987,84.043q-8.936-13.386-17.83-26.8A17.2,17.2,0,0,0,194.7,49.285c-6.866-.579-13.76-.069-19.245-.22-7.318,0-13.239-.027-19.16.006-7.239.041-12.94,2.8-16.965,9.081-5.707,8.909-11.721,17.62-17.518,26.472a12.972,12.972,0,0,0,0,15.219c5.841,8.911,11.877,17.7,17.65,26.652,3.894,6.042,9.432,8.818,16.4,8.874q18.208.146,36.418,0c6.6-.052,12.105-2.474,15.88-8.162q8.9-13.412,17.823-26.8C229.641,94.932,229.634,89.507,225.987,84.043Zm-56.021,29.39c0,3.952-1.557,5.647-5.415,5.677-6.14.049-12.28.009-18.42.019-1.014,0-1.918.048-1.887-1.441.03-1.418.954-1.251,1.826-1.253,3.92-.009,7.842.014,11.762-.012,3.094-.02,4.589-1.535,4.592-4.673q.015-19.31-.008-38.621c0-3.5-1.315-4.868-4.78-4.922-3.772-.059-7.546-.013-11.318-.049-.891-.009-2.013.311-2.056-1.266-.042-1.551,1.009-1.361,1.95-1.362,6.214-.006,12.429-.043,18.641.023,3.518.038,5.093,1.715,5.1,5.265.022,7.176.006,14.353.007,21.529Q169.967,102.889,169.966,113.433ZM198.99,64.049c-4.218-.027-8.436-.017-12.655-.009-2.8.005-4.233,1.228-4.634,3.989a13.883,13.883,0,0,0-.075,1.994q0,22.758.011,45.516a11.562,11.562,0,0,0,.2,2.421c.529,2.43,1.679,3.355,4.186,3.373,3.921.028,7.844.018,11.766,0,1.113,0,2.014.011,2.039,1.576s-.827,1.628-1.968,1.625c-6.956-.016-13.912.025-20.867-.029-3.079-.023-4.236-1.3-4.236-4.372q-.005-13.766,0-27.531.009-13.544.007-27.088c0-3.377,1.149-4.589,4.45-4.6,7.252-.023,14.5,0,21.756-.019,1.132,0,2,.014,2.01,1.571S200.122,64.056,198.99,64.049Z" transform="translate(-119.353 -49)"></path><g transform="translate(125.167 15.467)"><path d="M271.556,69.307c5.671,0,10.281,3.037,12,8.269h-5.891a6.44,6.44,0,0,0-6.147-3.658c-4.463,0-7.646,3.256-7.646,8.451,0,5.159,3.183,8.452,7.646,8.452a6.412,6.412,0,0,0,6.147-3.7h5.891c-1.72,5.268-6.33,8.269-12,8.269A12.591,12.591,0,0,1,258.6,82.369,12.621,12.621,0,0,1,271.556,69.307Z" transform="translate(-258.386 -66.49)"></path><path d="M297.364,75.158a8.017,8.017,0,0,1,6.7,3.22v-2.89h5.159V95.757H304.06V92.794a8,8,0,0,1-6.732,3.293c-5.122,0-9.22-4.208-9.22-10.538S292.206,75.158,297.364,75.158Zm1.317,4.5c-2.744,0-5.342,2.049-5.342,5.891s2.6,6.037,5.342,6.037c2.817,0,5.378-2.122,5.378-5.964S301.5,79.658,298.682,79.658Z" transform="translate(-261.324 -67.072)"></path><path d="M327.316,75.158c5.2,0,9.256,4.061,9.256,10.391s-4.061,10.538-9.256,10.538a8.273,8.273,0,0,1-6.7-3.22v12.55H315.5V75.488h5.123v2.926A8.1,8.1,0,0,1,327.316,75.158Zm-1.353,4.5c-2.744,0-5.342,2.122-5.342,5.964s2.6,5.964,5.342,5.964c2.781,0,5.378-2.2,5.378-6.037S328.743,79.658,325.963,79.658Z" transform="translate(-264.051 -67.072)"></path><path d="M340.816,69.178a3.15,3.15,0,1,1,3.147,3A3,3,0,0,1,340.816,69.178Zm.549,5.415h5.122V94.863h-5.122Z" transform="translate(-266.573 -66.178)"></path><path d="M351.725,79.177H349.31V74.97h2.415V69.957h5.159V74.97h4.537v4.208h-4.537v9.806c0,1.353.549,1.939,2.159,1.939h2.378v4.318H358.2c-3.879,0-6.476-1.646-6.476-6.293Z" transform="translate(-267.418 -66.554)"></path><path d="M373.034,75.158a8.018,8.018,0,0,1,6.7,3.22v-2.89h5.159V95.757H379.73V92.794A8,8,0,0,1,373,96.087c-5.122,0-9.22-4.208-9.22-10.538S367.875,75.158,373.034,75.158Zm1.316,4.5c-2.744,0-5.341,2.049-5.341,5.891s2.6,6.037,5.341,6.037c2.817,0,5.379-2.122,5.379-5.964S377.168,79.658,374.351,79.658Z" transform="translate(-268.859 -67.072)"></path><path d="M390.558,69.178a3.15,3.15,0,1,1,3.147,3A3,3,0,0,1,390.558,69.178Zm.548,5.415h5.122V94.863h-5.122Z" transform="translate(-271.526 -66.178)"></path><path d="M415.036,84.565c0-3.256-1.793-5.013-4.5-5.013-2.781,0-4.573,1.757-4.573,5.013v11.2H400.84V75.492h5.122v2.525a7.571,7.571,0,0,1,6.109-2.817c4.72,0,8.087,3.073,8.087,8.671V95.761h-5.123Z" transform="translate(-272.549 -67.076)"></path><path d="M434.785,96.087c-5.891,0-10.171-4.1-10.171-10.465,0-6.4,4.171-10.464,10.171-10.464,5.855,0,9.988,3.988,9.988,10.025a11.959,11.959,0,0,1-.146,1.976H429.809a4.743,4.743,0,0,0,4.866,4.684,4.178,4.178,0,0,0,4.062-2.452h5.525A9.423,9.423,0,0,1,434.785,96.087ZM429.846,83.72h9.622a4.5,4.5,0,0,0-4.829-4.354A4.707,4.707,0,0,0,429.846,83.72Z" transform="translate(-274.917 -67.072)"></path><path d="M469.143,69.307c5.671,0,10.281,3.037,12,8.269h-5.891a6.44,6.44,0,0,0-6.147-3.658c-4.463,0-7.646,3.256-7.646,8.451,0,5.159,3.183,8.452,7.646,8.452a6.412,6.412,0,0,0,6.147-3.7h5.891c-1.72,5.268-6.33,8.269-12,8.269A12.592,12.592,0,0,1,456.19,82.369,12.622,12.622,0,0,1,469.143,69.307Z" transform="translate(-278.061 -66.49)"></path><path d="M496.016,96.087c-5.854,0-10.281-4.1-10.281-10.465a10.427,10.427,0,1,1,20.855,0C506.59,91.989,501.907,96.087,496.016,96.087Zm0-4.464c2.708,0,5.305-1.976,5.305-6,0-4.061-2.524-6-5.232-6s-5.159,1.939-5.159,6C490.93,89.647,493.272,91.622,496.016,91.622Z" transform="translate(-281.003 -67.072)"></path><path d="M519.289,74.442a8.317,8.317,0,0,1,6.623,3.147V67.966h5.2V95.041h-5.2v-3a7.661,7.661,0,0,1-6.659,3.33c-5.159,0-9.257-4.208-9.257-10.538S514.094,74.442,519.289,74.442Zm1.28,4.5c-2.744,0-5.341,2.049-5.341,5.891s2.6,6.037,5.341,6.037c2.817,0,5.379-2.122,5.379-5.964S523.387,78.942,520.57,78.942Z" transform="translate(-283.419 -66.356)"></path><path d="M546.1,96.087c-5.891,0-10.171-4.1-10.171-10.465,0-6.4,4.171-10.464,10.171-10.464,5.855,0,9.988,3.988,9.988,10.025a11.965,11.965,0,0,1-.146,1.976H541.119a4.743,4.743,0,0,0,4.866,4.684,4.179,4.179,0,0,0,4.062-2.452h5.525A9.423,9.423,0,0,1,546.1,96.087Zm-4.94-12.366h9.623a4.5,4.5,0,0,0-4.829-4.354A4.708,4.708,0,0,0,541.155,83.72Z" transform="translate(-286.001 -67.072)"></path><path d="M266.468,115.183c0,2.983-1.948,4.792-5.11,4.792h-3V110.35h3C264.52,110.35,266.468,112.2,266.468,115.183Zm-5.11,3.757c2.513,0,3.825-1.409,3.825-3.757a3.471,3.471,0,0,0-3.825-3.811h-1.74v7.567Z" transform="translate(-258.362 -70.576)"></path><path d="M272.118,119.969a3.646,3.646,0,0,1-3.743-3.922,3.6,3.6,0,0,1,3.743-3.893,3.468,3.468,0,0,1,3.63,3.618,6.96,6.96,0,0,1-.04.759H269.66a2.378,2.378,0,0,0,2.458,2.375,2.079,2.079,0,0,0,2.126-1.395H275.6A3.4,3.4,0,0,1,272.118,119.969Zm-2.445-4.461h4.778a2.22,2.22,0,0,0-2.389-2.292A2.344,2.344,0,0,0,269.673,115.508Zm3.742-6.462v1.091l-2.941,1.574v-.939Z" transform="translate(-259.359 -70.447)"></path><path d="M278.455,112.635l2.361,6.407,2.347-6.407h1.34l-2.97,7.567h-1.463l-2.969-7.567Z" transform="translate(-260.228 -70.804)"></path><path d="M289.616,120.313a3.645,3.645,0,0,1-3.742-3.922,3.6,3.6,0,0,1,3.742-3.893,3.468,3.468,0,0,1,3.63,3.618,6.96,6.96,0,0,1-.041.759h-6.048a2.379,2.379,0,0,0,2.458,2.375,2.079,2.079,0,0,0,2.126-1.395H293.1A3.4,3.4,0,0,1,289.616,120.313Zm-2.445-4.461h4.778a2.22,2.22,0,0,0-2.389-2.292A2.344,2.344,0,0,0,287.172,115.852Z" transform="translate(-261.102 -70.79)"></path><path d="M295.6,109.69h1.257v10.219H295.6Z" transform="translate(-262.07 -70.511)"></path><path d="M302.31,120.313a3.908,3.908,0,1,1,3.881-3.922A3.752,3.752,0,0,1,302.31,120.313Zm0-1.1a2.569,2.569,0,0,0,2.6-2.817,2.542,2.542,0,0,0-2.554-2.8,2.829,2.829,0,0,0-.041,5.62Z" transform="translate(-262.363 -70.79)"></path><path d="M312.658,112.5a3.586,3.586,0,0,1,3.59,3.88,3.642,3.642,0,0,1-3.59,3.936,3.272,3.272,0,0,1-2.831-1.519v4.985H308.57V112.621h1.257v1.395A3.2,3.2,0,0,1,312.658,112.5Zm-.263,1.09a2.822,2.822,0,1,0,2.568,2.79A2.558,2.558,0,0,0,312.395,113.587Z" transform="translate(-263.362 -70.79)"></path><path d="M322.718,112.5a3.586,3.586,0,0,1,3.59,3.88,3.642,3.642,0,0,1-3.59,3.936,3.272,3.272,0,0,1-2.831-1.519v4.985H318.63V112.621h1.257v1.395A3.2,3.2,0,0,1,322.718,112.5Zm-.263,1.09a2.822,2.822,0,1,0,2.568,2.79A2.558,2.558,0,0,0,322.455,113.587Z" transform="translate(-264.363 -70.79)"></path><path d="M331.911,120.313a3.646,3.646,0,0,1-3.742-3.922,3.6,3.6,0,0,1,3.742-3.893,3.468,3.468,0,0,1,3.631,3.618,6.75,6.75,0,0,1-.041.759h-6.048a2.379,2.379,0,0,0,2.458,2.375,2.08,2.08,0,0,0,2.127-1.395h1.352A3.4,3.4,0,0,1,331.911,120.313Zm-2.444-4.461h4.778a2.221,2.221,0,0,0-2.389-2.292A2.343,2.343,0,0,0,329.467,115.852Z" transform="translate(-265.313 -70.79)"></path><path d="M348.814,115.906c0-1.547-.828-2.334-2.071-2.334-1.27,0-2.14.815-2.14,2.444v4.171h-1.243v-4.281c0-1.547-.828-2.334-2.071-2.334-1.271,0-2.14.815-2.14,2.444v4.171h-1.256V112.62h1.256v1.09a2.737,2.737,0,0,1,2.389-1.229,2.846,2.846,0,0,1,2.775,1.686,2.8,2.8,0,0,1,2.68-1.686,2.929,2.929,0,0,1,3.065,3.245v4.461h-1.243Z" transform="translate(-266.281 -70.789)"></path><path d="M356.6,120.313a3.646,3.646,0,0,1-3.743-3.922A3.6,3.6,0,0,1,356.6,112.5a3.468,3.468,0,0,1,3.631,3.618,6.743,6.743,0,0,1-.041.759h-6.047a2.378,2.378,0,0,0,2.458,2.375,2.079,2.079,0,0,0,2.126-1.395h1.353A3.4,3.4,0,0,1,356.6,120.313Zm-2.445-4.461h4.778a2.22,2.22,0,0,0-2.389-2.292A2.344,2.344,0,0,0,354.157,115.852Z" transform="translate(-267.772 -70.79)"></path><path d="M368.119,115.906c0-1.547-.842-2.334-2.112-2.334s-2.167.8-2.167,2.43v4.184h-1.257V112.62h1.257V113.7a2.8,2.8,0,0,1,2.43-1.216,2.936,2.936,0,0,1,3.093,3.245v4.461h-1.243Z" transform="translate(-268.74 -70.789)"></path><path d="M372.289,113.46h-.98v-1.035h.98v-1.905h1.256v1.905h1.975v1.035h-1.975v4.46c0,.746.277,1.008,1.05,1.008h.925v1.063h-1.132c-1.339,0-2.1-.553-2.1-2.072Z" transform="translate(-269.609 -70.593)"></path><path d="M384.236,112.217a3.3,3.3,0,0,1,2.8,1.478V109.69h1.271v10.219h-1.271v-1.423a3.107,3.107,0,0,1-2.817,1.547,3.642,3.642,0,0,1-3.591-3.936A3.589,3.589,0,0,1,384.236,112.217Zm.235,1.09a2.555,2.555,0,0,0-2.555,2.79,2.571,2.571,0,1,0,2.555-2.79Z" transform="translate(-270.537 -70.511)"></path><path d="M394.435,120.313a3.646,3.646,0,0,1-3.743-3.922,3.6,3.6,0,0,1,3.743-3.893,3.468,3.468,0,0,1,3.63,3.618,6.728,6.728,0,0,1-.041.759h-6.047a2.378,2.378,0,0,0,2.458,2.375,2.079,2.079,0,0,0,2.126-1.395h1.353A3.4,3.4,0,0,1,394.435,120.313Zm-2.445-4.461h4.778a2.22,2.22,0,0,0-2.389-2.292A2.344,2.344,0,0,0,391.99,115.852Z" transform="translate(-271.539 -70.79)"></path><path d="M406.836,120.313c-1.768,0-3.01-.967-3.093-2.347h1.3c.068.731.718,1.284,1.781,1.284.994,0,1.546-.5,1.546-1.119,0-1.684-4.473-.7-4.473-3.521,0-1.16,1.091-2.112,2.775-2.112s2.776.9,2.858,2.375h-1.256a1.455,1.455,0,0,0-1.643-1.312c-.925,0-1.477.441-1.477,1.049,0,1.8,4.39.815,4.445,3.521C409.6,119.374,408.507,120.313,406.836,120.313Z" transform="translate(-272.839 -70.79)"></path><path d="M411.671,110.224a.842.842,0,1,1,.856.856A.843.843,0,0,1,411.671,110.224Zm.207,2.085h1.257v7.567h-1.257Z" transform="translate(-273.628 -70.479)"></path><path d="M415.566,113.46h-.981v-1.035h.981v-1.905h1.256v1.905H418.8v1.035h-1.975v4.46c0,.746.276,1.008,1.05,1.008h.925v1.063h-1.132c-1.339,0-2.1-.553-2.1-2.072Z" transform="translate(-273.918 -70.593)"></path><path d="M423.863,120.313a3.646,3.646,0,0,1-3.742-3.922,3.6,3.6,0,0,1,3.742-3.893,3.468,3.468,0,0,1,3.631,3.618,6.743,6.743,0,0,1-.041.759H421.4a2.379,2.379,0,0,0,2.458,2.375,2.08,2.08,0,0,0,2.127-1.395h1.353A3.4,3.4,0,0,1,423.863,120.313Zm-2.444-4.461H426.2a2.221,2.221,0,0,0-2.389-2.292A2.343,2.343,0,0,0,421.419,115.852Z" transform="translate(-274.469 -70.79)"></path><path d="M432.477,120.313c-1.768,0-3.01-.967-3.093-2.347h1.3c.069.731.719,1.284,1.782,1.284.994,0,1.546-.5,1.546-1.119,0-1.684-4.473-.7-4.473-3.521,0-1.16,1.09-2.112,2.775-2.112s2.775.9,2.858,2.375h-1.256a1.455,1.455,0,0,0-1.643-1.312c-.925,0-1.478.441-1.478,1.049,0,1.8,4.391.815,4.446,3.521C435.239,119.374,434.147,120.313,432.477,120.313Z" transform="translate(-275.392 -70.79)"></path><path d="M440.333,112.635h1.285l1.74,6.352,1.877-6.352h1.285L448.356,119l1.713-6.366h1.243l-2.362,7.567h-1.3l-1.822-6.007-1.822,6.007h-1.3Z" transform="translate(-276.482 -70.804)"></path><path d="M456.819,120.313a3.646,3.646,0,0,1-3.742-3.922,3.6,3.6,0,0,1,3.742-3.893,3.468,3.468,0,0,1,3.631,3.618,6.743,6.743,0,0,1-.041.759h-6.048a2.379,2.379,0,0,0,2.458,2.375,2.08,2.08,0,0,0,2.127-1.395H460.3A3.4,3.4,0,0,1,456.819,120.313Zm-2.444-4.461h4.778a2.221,2.221,0,0,0-2.389-2.292A2.343,2.343,0,0,0,454.375,115.852Z" transform="translate(-277.751 -70.79)"></path><path d="M466.887,112.217a3.578,3.578,0,0,1,3.59,3.88,3.642,3.642,0,0,1-3.59,3.936,3.159,3.159,0,0,1-2.831-1.519v1.395H462.8V109.69h1.256v4.06A3.208,3.208,0,0,1,466.887,112.217Zm-.262,1.09a2.822,2.822,0,1,0,2.568,2.79A2.558,2.558,0,0,0,466.625,113.308Z" transform="translate(-278.719 -70.511)"></path><path d="M479.281,120.313c-1.768,0-3.01-.967-3.093-2.347h1.3c.069.731.719,1.284,1.782,1.284.994,0,1.546-.5,1.546-1.119,0-1.684-4.473-.7-4.473-3.521,0-1.16,1.09-2.112,2.775-2.112s2.775.9,2.858,2.375h-1.256a1.455,1.455,0,0,0-1.643-1.312c-.925,0-1.478.441-1.478,1.049,0,1.8,4.391.815,4.446,3.521C482.043,119.374,480.952,120.313,479.281,120.313Z" transform="translate(-280.052 -70.79)"></path><path d="M491.049,120.2h-1.256v-1.119a2.783,2.783,0,0,1-2.417,1.229,2.952,2.952,0,0,1-3.106-3.244v-4.433h1.243V116.9a2.029,2.029,0,0,0,2.112,2.319c1.3,0,2.168-.8,2.168-2.43v-4.156h1.256Z" transform="translate(-280.857 -70.804)"></path><path d="M495.111,120.187h-1.257V112.62h1.257v1.229a2.547,2.547,0,0,1,2.444-1.368v1.3h-.331c-1.2,0-2.112.538-2.112,2.292Z" transform="translate(-281.812 -70.789)"></path><path d="M513.978,115.906c0-1.547-.828-2.334-2.071-2.334-1.27,0-2.14.815-2.14,2.444v4.171h-1.243v-4.281c0-1.547-.828-2.334-2.071-2.334-1.271,0-2.14.815-2.14,2.444v4.171h-1.256V112.62h1.256v1.09a2.737,2.737,0,0,1,2.389-1.229,2.848,2.848,0,0,1,2.776,1.686,2.8,2.8,0,0,1,2.679-1.686,2.929,2.929,0,0,1,3.065,3.245v4.461h-1.243Z" transform="translate(-282.728 -70.789)"></path><path d="M521.765,120.313a3.646,3.646,0,0,1-3.742-3.922,3.6,3.6,0,0,1,3.742-3.893,3.468,3.468,0,0,1,3.631,3.618,6.743,6.743,0,0,1-.041.759h-6.048a2.379,2.379,0,0,0,2.458,2.375,2.08,2.08,0,0,0,2.127-1.395h1.352A3.4,3.4,0,0,1,521.765,120.313Zm-2.444-4.461H524.1a2.221,2.221,0,0,0-2.389-2.292A2.343,2.343,0,0,0,519.321,115.852Z" transform="translate(-284.218 -70.79)"></path><path d="M530.379,120.313c-1.768,0-3.01-.967-3.093-2.347h1.3c.069.731.718,1.284,1.782,1.284.994,0,1.546-.5,1.546-1.119,0-1.684-4.473-.7-4.473-3.521,0-1.16,1.09-2.112,2.775-2.112s2.775.9,2.858,2.375h-1.257a1.454,1.454,0,0,0-1.642-1.312c-.926,0-1.478.441-1.478,1.049,0,1.8,4.391.815,4.446,3.521C533.141,119.374,532.049,120.313,530.379,120.313Z" transform="translate(-285.141 -70.79)"></path><path d="M542.147,120.2h-1.256v-1.119a2.783,2.783,0,0,1-2.417,1.229,2.952,2.952,0,0,1-3.107-3.244v-4.433h1.243V116.9a2.03,2.03,0,0,0,2.112,2.319c1.3,0,2.168-.8,2.168-2.43v-4.156h1.256Z" transform="translate(-285.945 -70.804)"></path><path d="M546.209,120.187h-1.257V112.62h1.257v1.229a2.547,2.547,0,0,1,2.444-1.368v1.3h-.331c-1.2,0-2.112.538-2.112,2.292Z" transform="translate(-286.9 -70.789)"></path><path d="M553.586,120.313a3.646,3.646,0,0,1-3.742-3.922,3.6,3.6,0,0,1,3.742-3.893,3.468,3.468,0,0,1,3.631,3.618,6.743,6.743,0,0,1-.041.759h-6.047a2.378,2.378,0,0,0,2.457,2.375,2.08,2.08,0,0,0,2.127-1.395h1.353A3.4,3.4,0,0,1,553.586,120.313Zm-2.444-4.461h4.778a2.221,2.221,0,0,0-2.389-2.292A2.343,2.343,0,0,0,551.142,115.852Z" transform="translate(-287.387 -70.79)"></path></g></g></g></svg>